<?xml version="1.0" encoding="UTF-8"?><svg id="Camada_1" xmlns="http://www.w3.org/2000/svg" viewBox="0 0 106.01 141.78"><defs><style>.cls-1,.cls-2{fill:none;stroke:#1d1d1b;stroke-linejoin:round;stroke-width:9px;}.cls-2{stroke-linecap:square;}</style></defs><path class="cls-2" d="M4.5,90.3v40.07s4.07,15.54,18,0l15.58-15.58v-8.48"/><path class="cls-1" d="M42.21,80.74v-26.02l42.16,22.29s6.65,4.69,0,9.62l-19.61,14.16s-4.9,3.79-11.72,0L8.72,78.6s-3.41-2.72-3.41-7.46V34.19s3.79-11.94,14.97-5.68,46.8,24.82,46.8,24.82c0,0,7.77,1.52,11.56-1.14s22.17-16.67,22.17-16.67c0,0,3.41-4.38-4.74-8.82S54.38,4.82,54.38,4.82c0,0-12.2-2.65-12.16,7.2s0,14.97,0,14.97"/></svg>